<?xml version="1.0" encoding="utf-8"?>
<svg version="1.1" xmlns:xlink="http://www.w3.org/1999/xlink" width="130px" height="54px" xmlns="http://www.w3.org/2000/svg">
  <defs>
    <mask fill="white" id="clip81">
      <path d="M 0 54  L 0 0  L 59.6060606060593 0  L 103.545454545455 0  L 130 0  L 130 54  L 0 54  Z " fill-rule="evenodd" />
    </mask>
  </defs>
  <g transform="matrix(1 0 0 1 -526 -665 )">
    <path d="M 0 54  L 0 0  L 59.6060606060593 0  L 103.545454545455 0  L 130 0  L 130 54  L 0 54  Z " fill-rule="nonzero" fill="#ffffff" stroke="none" transform="matrix(1 0 0 1 526 665 )" />
    <path d="M 0 54  L 0 0  L 59.6060606060593 0  L 103.545454545455 0  L 130 0  L 130 54  L 0 54  Z " stroke-width="2" stroke="#797979" fill="none" transform="matrix(1 0 0 1 526 665 )" mask="url(#clip81)" />
  </g>
</svg>